<?xml version="1.0" encoding="UTF-8"?>
<svg id="Layer_1" data-name="Layer 1" xmlns="http://www.w3.org/2000/svg" viewBox="0 0 453.54 226.9">
  <g>
    <path d="M32.76,163.8c-12.01,0-21.84-.88-32.76-2.19V3.28C10.48,1.97,20.31,1.09,32.11,1.09c49.14,0,74.69,33.86,74.69,80.37s-24.9,82.34-74.04,82.34ZM36.04,23.37c-4.15,0-8.08.22-11.36.87v116.62c3.71.43,6.99.66,12.45.66,28.83,0,43.9-23.37,43.9-60.06,0-34.72-16.16-58.09-44.99-58.09Z"/>
    <path d="M194.74,162.49l-10.92-34.94h-45.21l-10.92,34.94h-24.68L156.3.88h10.48l53.29,161.61h-25.33ZM161.32,50.89l-16.16,55.9h32.11l-15.95-55.9Z"/>
    <path d="M263.32,164.23h-11.14L200.2,2.4h26.43l31.45,108.1L289.09,2.4h26.21l-51.98,161.83Z"/>
    <path d="M326.22,162.49V2.4h24.68v160.08h-24.68Z"/>
    <path d="M409.43,164.89c-14.63,0-30.14-5.68-42.59-14.2l8.74-22.05c10.26,7.86,22.28,13.32,33.41,13.32,13.55,0,19.66-8.52,19.66-19.66s-6.11-19.66-25.56-33.42c-20.75-14.41-31.23-28.38-31.23-46.73,0-22.5,17.03-42.15,43.9-42.15,14.19,0,25.77,4.59,35.15,11.14l-8.51,21.84c-8.3-6.33-17.04-10.48-26.42-10.48-12.67,0-19.22,8.08-19.22,18.56s7.64,18.12,23.81,29.92c22.93,15.94,32.97,29.48,32.97,49.57,0,24.68-16.81,44.33-44.12,44.33Z"/>
  </g>
  <g>
    <path d="M96.38,198.94v10.16h13.29v3.94h-13.29v13.29h-4.16v-31.32h18.03v3.94h-13.87Z"/>
    <path d="M151.55,219.29h-14.09l-2.55,7.03h-4.43l11.68-31.32h4.7l11.68,31.32h-4.43l-2.55-7.03ZM150.11,215.4l-5.64-15.43-5.59,15.43h11.23Z"/>
    <path d="M201.54,217.46c0,5.01-4.03,8.86-9.08,8.86h-13.51v-31.32h12.53c4.87,0,8.77,3.71,8.77,8.55,0,2.81-1.34,5.1-3.4,6.54,2.82,1.33,4.7,3.98,4.7,7.38ZM183.11,198.89v9.57h8.37c2.59,0,4.66-2.11,4.66-4.78s-2.06-4.8-4.66-4.8h-8.37ZM197.43,217.33c0-2.82-2.19-5.06-4.96-5.06h-9.35v10.16h9.35c2.77,0,4.96-2.24,4.96-5.1Z"/>
    <path d="M235.28,214.32h-7.39v12h-4.16v-31.32h12.53c5.37,0,9.75,4.34,9.75,9.71,0,4.12-2.73,7.74-6.49,9.08l7.39,12.53h-4.61l-7.02-12ZM227.89,210.57h8.37c3.09,0,5.59-2.64,5.59-5.86s-2.5-5.82-5.59-5.82h-8.37v11.68Z"/>
    <path d="M274.28,195v31.32h-4.17v-31.32h4.17Z"/>
    <path d="M294.07,210.66c0-9.04,6.8-16.24,16.38-16.24,5.77,0,10.88,3,13.51,7.61l-3.62,2.1c-1.79-3.44-5.59-5.68-9.89-5.68-7.34,0-12.26,5.33-12.26,12.21s4.92,12.17,12.26,12.17c4.3,0,8.1-2.24,9.89-5.63l3.62,2.05c-2.59,4.61-7.69,7.65-13.51,7.65-9.57,0-16.38-7.25-16.38-16.25Z"/>
    <path d="M338.64,219.21l3.58-2.06c1.12,3.45,3.8,5.68,8.37,5.68s6.62-2.01,6.62-4.83c0-3.22-2.76-4.3-7.37-5.73-5.02-1.62-9.85-3.18-9.85-8.99s4.61-8.86,9.85-8.86,8.85,2.91,10.6,6.85l-3.49,2.01c-1.12-2.68-3.31-4.84-7.11-4.84-3.36,0-5.69,1.79-5.69,4.66s2.2,3.98,6.58,5.36c5.46,1.79,10.61,3.4,10.61,9.44,0,5.5-4.43,8.99-10.83,8.99-5.95,0-10.21-3-11.86-7.69Z"/>
  </g>
</svg>